<svg width="127" height="161" viewBox="0 0 127 161" fill="none" xmlns="http://www.w3.org/2000/svg">
<path d="M69.65 160.53C52.03 160.53 37.42 151.322 30.61 135.91H30.2101C30.4101 140.113 30.41 143.716 30.41 147.92V157.327H9V1H30.61V57.046C30.61 61.049 30.6101 64.452 30.2101 68.655H30.61C37.42 53.242 52.03 44.035 69.65 44.035C95.47 44.035 119.89 64.051 119.89 102.282C119.89 140.514 95.47 160.53 69.65 160.53ZM30.41 102.282C30.41 126.502 43.63 142.715 63.64 142.715C83.86 142.715 97.0701 126.502 97.0701 102.282C97.0701 78.063 83.86 61.85 63.64 61.85C43.63 61.85 30.41 78.063 30.41 102.282Z" fill="white"/>
</svg>
